<?xml version="1.0" standalone="no"?>
<!DOCTYPE svg PUBLIC "-//W3C//DTD SVG 20010904//EN"
 "http://www.w3.org/TR/2001/REC-SVG-20010904/DTD/svg10.dtd">
<svg version="1.0" xmlns="http://www.w3.org/2000/svg"
 width="175.000000pt" height="175.000000pt" viewBox="0 0 175.000000 175.000000"
 preserveAspectRatio="xMidYMid meet">
<metadata>
Created by potrace 1.11, written by Peter Selinger 2001-2013
</metadata>
<g transform="translate(0.000000,175.000000) scale(0.100000,-0.100000)"
fill="#000000" stroke="none">
<path d="M1500 1305 c-177 -112 -200 -116 -677 -112 -435 4 -434 4 -565 83
-47 29 -73 38 -108 39 -39 0 -45 -3 -48 -23 -2 -13 5 -37 16 -55 13 -23 16
-37 9 -48 -11 -18 -1 -89 13 -89 6 0 10 -13 10 -29 0 -40 34 -78 81 -92 28 -9
38 -17 34 -28 -30 -99 -37 -153 -32 -246 4 -79 9 -108 27 -138 37 -63 105 -93
225 -100 22 -2 65 -14 95 -29 67 -31 218 -58 329 -58 95 0 252 32 291 60 15
10 60 26 100 34 132 28 202 99 206 209 3 71 -10 148 -36 225 l-18 54 44 44
c31 30 44 52 44 71 0 20 11 37 37 59 34 29 36 34 26 57 -10 22 -9 30 8 50 24
32 24 52 -1 77 -27 27 -46 25 -110 -15z"/>
</g>
</svg>
